<svg
  width="80"
  height="80"
  viewBox="0 0 80 80"
  fill="none"
  xmlns="http://www.w3.org/2000/svg"
>
  <circle cx="41.5" cy="22.5" r="14.5" fill="#F6FF81" />
  <circle cx="36" cy="52" r="12" fill="#D4E5E2" />
  <circle cx="14" cy="36" r="10" fill="#D4E5E2" />
  <path
    fill-rule="evenodd"
    clip-rule="evenodd"
    d="M39.3431 15.9289L45.7071 22.2928C46.0976 22.6834 46.0976 23.3165 45.7071 23.7071L39.3431 30.071C38.9526 30.4615 38.3195 30.4615 37.9289 30.071C37.5384 29.6805 37.5384 29.0473 37.9289 28.6568L42.5858 23.9999L27 23.9999L27 21.9999L42.5858 21.9999L37.9289 17.3431C37.5384 16.9526 37.5384 16.3194 37.9289 15.9289C38.3195 15.5384 38.9526 15.5384 39.3431 15.9289Z"
    fill="black"
  />
  <path
    fill-rule="evenodd"
    clip-rule="evenodd"
    d="M32.4453 47.1989L36.7996 51.5199C37.0668 51.785 37.0668 52.215 36.7996 52.4801L32.4453 56.8011C32.1781 57.0663 31.7449 57.0663 31.4777 56.8011C31.2105 56.536 31.2105 56.1061 31.4777 55.8409L34.664 52.679H24V51.321H34.664L31.4777 48.1591C31.2105 47.8939 31.2105 47.464 31.4777 47.1989C31.7449 46.9337 32.1781 46.9337 32.4453 47.1989Z"
    fill="black"
  />
  <path
    fill-rule="evenodd"
    clip-rule="evenodd"
    d="M10.4964 32.1591L13.8458 35.6159C14.0514 35.828 14.0514 36.172 13.8458 36.3841L10.4964 39.8409C10.2909 40.053 9.95761 40.053 9.75207 39.8409C9.54653 39.6288 9.54653 39.2849 9.75207 39.0727L12.203 36.5432H4V35.4568H12.203L9.75207 32.9273C9.54653 32.7151 9.54653 32.3712 9.75207 32.1591C9.95761 31.947 10.2909 31.947 10.4964 32.1591Z"
    fill="black"
  />
  <line x1="27" y1="23" x2="22" y2="23" stroke="white" stroke-width="2" />
</svg>
