<svg
  width="80"
  height="80"
  viewBox="0 0 80 80"
  fill="none"
  xmlns="http://www.w3.org/2000/svg"
>
  <path
    d="M46 28C46 35.732 38.6127 42 29.5 42C20.3873 42 13 35.732 13 28C13 20.268 20.3873 14 29.5 14C38.6127 14 46 20.268 46 28Z"
    fill="#D6E4E2"
  />
  <path
    d="M58 36C58 43.732 50.6127 50 41.5 50C32.3873 50 25 43.732 25 36C25 28.268 32.3873 22 41.5 22C50.6127 22 58 28.268 58 36Z"
    fill="#D6E4E2"
  />
  <path
    d="M32 39C32 45.6274 24.8366 51 16 51C7.16344 51 0 45.6274 0 39C0 32.3726 7.16344 27 16 27C24.8366 27 32 32.3726 32 39Z"
    fill="#D6E4E2"
  />
  <circle cx="29" cy="49" r="16" fill="#F5FF80" />
  <path
    d="M25.1264 57.3079C23.2272 56.4224 21.6887 54.9129 20.7672 53.0309C19.8458 51.1489 19.5969 49.008 20.0622 46.9648C20.5274 44.9216 21.6786 43.0995 23.3241 41.8019C24.9695 40.5044 27.0098 39.8098 29.1052 39.8339"
    stroke="black"
    stroke-width="1.83333"
    stroke-linecap="round"
  />
  <path
    d="M32.8736 40.6921C34.7728 41.5776 36.3113 43.0871 37.2328 44.9691C38.1542 46.8511 38.4031 48.992 37.9378 51.0352C37.4726 53.0784 36.3214 54.9005 34.6759 56.1981C33.0305 57.4956 30.9902 58.1902 28.8948 58.1661"
    stroke="black"
    stroke-width="1.83333"
    stroke-linecap="round"
  />
  <path
    d="M30.8334 39.8333L28.7709 41.421L28.7709 38.2456L30.8334 39.8333Z"
    fill="black"
    stroke="black"
    stroke-width="0.916667"
    stroke-linejoin="round"
  />
  <path
    d="M27.1666 58.1667L29.2291 56.579L29.2291 59.7544L27.1666 58.1667Z"
    fill="black"
    stroke="black"
    stroke-width="0.916667"
    stroke-linejoin="round"
  />
</svg>
