<svg
  width="80"
  height="80"
  viewBox="0 0 80 80"
  fill="none"
  xmlns="http://www.w3.org/2000/svg"
>
  <circle cx="14" cy="52" r="14" fill="#F5FF80" />
  <line
    x1="8.25085"
    y1="48"
    x2="12.0034"
    y2="51.7525"
    stroke="black"
    stroke-width="1.76897"
    stroke-linecap="round"
  />
  <line
    x1="12.0034"
    y1="51.9044"
    x2="8.25087"
    y2="55.657"
    stroke="black"
    stroke-width="1.76897"
    stroke-linecap="round"
  />
  <line x1="22" y1="55" x2="14" y2="55" stroke="black" stroke-width="2" />
  <circle cx="45" cy="52" r="14" fill="#DEE4E3" />
  <line
    x1="39.2509"
    y1="48"
    x2="43.0034"
    y2="51.7525"
    stroke="black"
    stroke-width="1.76897"
    stroke-linecap="round"
  />
  <line
    x1="43.0034"
    y1="51.9044"
    x2="39.2509"
    y2="55.657"
    stroke="black"
    stroke-width="1.76897"
    stroke-linecap="round"
  />
  <line x1="53" y1="55" x2="45" y2="55" stroke="black" stroke-width="2" />
  <path
    d="M39 12.5C39 12.5251 38.983 12.7257 38.5344 13.0632C38.1028 13.3879 37.4148 13.7229 36.475 14.0219C34.6067 14.6164 31.9638 15 29 15C26.0362 15 23.3933 14.6164 21.525 14.0219C20.5852 13.7229 19.8972 13.3879 19.4656 13.0632C19.017 12.7257 19 12.5251 19 12.5C19 12.4749 19.017 12.2743 19.4656 11.9368C19.8972 11.6121 20.5852 11.2771 21.525 10.9781C23.3933 10.3836 26.0362 10 29 10C31.9638 10 34.6067 10.3836 36.475 10.9781C37.4148 11.2771 38.1028 11.6121 38.5344 11.9368C38.983 12.2743 39 12.4749 39 12.5Z"
    stroke="#F5FF80"
    stroke-width="2"
  />
  <path
    d="M39 18.5C39 18.5251 38.983 18.7257 38.5344 19.0632C38.1028 19.3879 37.4148 19.7229 36.475 20.0219C34.6067 20.6164 31.9638 21 29 21C26.0362 21 23.3933 20.6164 21.525 20.0219C20.5852 19.7229 19.8972 19.3879 19.4656 19.0632C19.017 18.7257 19 18.5251 19 18.5C19 18.4749 19.017 18.2743 19.4656 17.9368C19.8972 17.6121 20.5852 17.2771 21.525 16.9781C23.3933 16.3836 26.0362 16 29 16C31.9638 16 34.6067 16.3836 36.475 16.9781C37.4148 17.2771 38.1028 17.6121 38.5344 17.9368C38.983 18.2743 39 18.4749 39 18.5Z"
    stroke="#F5FF80"
    stroke-width="2"
  />
  <path
    d="M39 24.5C39 24.5251 38.983 24.7257 38.5344 25.0632C38.1028 25.3879 37.4148 25.7229 36.475 26.0219C34.6067 26.6164 31.9638 27 29 27C26.0362 27 23.3933 26.6164 21.525 26.0219C20.5852 25.7229 19.8972 25.3879 19.4656 25.0632C19.017 24.7257 19 24.5251 19 24.5C19 24.4749 19.017 24.2743 19.4656 23.9368C19.8972 23.6121 20.5852 23.2771 21.525 22.9781C23.3933 22.3836 26.0362 22 29 22C31.9638 22 34.6067 22.3836 36.475 22.9781C37.4148 23.2771 38.1028 23.6121 38.5344 23.9368C38.983 24.2743 39 24.4749 39 24.5Z"
    stroke="#F5FF80"
    stroke-width="2"
  />
  <path
    d="M29 34C35.0751 34 40 32.433 40 30.5C40 28.567 35.0751 27 29 27"
    stroke="#F5FF80"
    stroke-width="2"
  />
  <path
    d="M7 32.5V23H12"
    stroke="white"
    stroke-width="2"
    stroke-linejoin="round"
  />
  <path
    d="M15 23L12 25.5981V20.4019L15 23Z"
    fill="white"
    stroke="white"
    stroke-linejoin="round"
  />
  <path
    d="M7 34L4.40192 31L9.59808 31L7 34Z"
    fill="white"
    stroke="white"
    stroke-linejoin="round"
  />
  <path
    d="M52 32.5V23H47"
    stroke="white"
    stroke-width="2"
    stroke-linejoin="round"
  />
  <path
    d="M44 23L47 25.5981V20.4019L44 23Z"
    fill="white"
    stroke="white"
    stroke-linejoin="round"
  />
  <path
    d="M52 34L54.5981 31L49.4019 31L52 34Z"
    fill="white"
    stroke="white"
    stroke-linejoin="round"
  />
</svg>
