<svg width="503" height="514" fill="none" xmlns="http://www.w3.org/2000/svg">
  <circle cx="409" cy="422" r="29" fill="#F5FF80" />
  <circle cx="63" cy="74" r="27" fill="#F5FF80" />
  <circle cx="472" cy="485" r="29" fill="#F5FF80" />
  <circle cx="409" cy="485" r="29" fill="#fff" />
  <circle cx="472" cy="422" r="29" fill="#D7E4E3" />
  <path
    d="M63 136a61.006 61.006 0 0056.357-37.656 60.997 60.997 0 00-13.223-66.477A61.003 61.003 0 0012.28 41.11 61 61 0 002 75"
    stroke="#fff"
    stroke-width="4"
  />
  <circle cx="189" cy="75" r="60" fill="#F2F2F2" />
  <circle cx="189" cy="202" r="60" fill="#fff" />
  <circle cx="313" cy="328" r="60" fill="#F2F2F2" />
  <circle cx="63" cy="202" r="60" fill="#F5FF80" />
  <circle cx="314" cy="76" r="60" fill="#F5FF80" />
  <circle cx="189" cy="329" r="60" fill="#F5FF80" />
  <path
    d="M121 305c0 1.872-1.156 3.985-4.019 6.204-2.836 2.199-7.066 4.266-12.471 6.038C93.722 320.779 78.692 323 62 323c-16.692 0-31.722-2.221-42.51-5.758-5.405-1.772-9.635-3.839-12.471-6.038C4.156 308.985 3 306.872 3 305c0-1.872 1.156-3.985 4.019-6.204 2.836-2.199 7.066-4.266 12.47-6.038C30.279 289.221 45.309 287 62 287c16.692 0 31.722 2.221 42.51 5.758 5.405 1.772 9.635 3.839 12.471 6.038 2.863 2.219 4.019 4.332 4.019 6.204zM65 431c-34.242 0-62-8.059-62-18s27.758-18 62-18M65 287c-34.242 0-62-8.059-62-18s27.758-18 62-18M121 377c0 1.872-1.156 3.985-4.019 6.204-2.836 2.199-7.066 4.266-12.471 6.038C93.722 392.779 78.692 395 62 395c-16.692 0-31.722-2.221-42.51-5.758-5.405-1.772-9.635-3.839-12.471-6.038C4.156 380.985 3 378.872 3 377c0-1.872 1.156-3.985 4.019-6.204 2.836-2.199 7.066-4.266 12.47-6.038C30.279 361.221 45.309 359 62 359c16.692 0 31.722 2.221 42.51 5.758 5.405 1.772 9.635 3.839 12.471 6.038 2.863 2.219 4.019 4.332 4.019 6.204zM121 341c0 1.872-1.156 3.985-4.019 6.204-2.836 2.199-7.066 4.266-12.471 6.038C93.722 356.779 78.692 359 62 359c-16.692 0-31.722-2.221-42.51-5.758-5.405-1.772-9.635-3.839-12.471-6.038C4.156 344.985 3 342.872 3 341c0-1.872 1.156-3.985 4.019-6.204 2.836-2.199 7.066-4.266 12.47-6.038C30.279 325.221 45.309 323 62 323c16.692 0 31.722 2.221 42.51 5.758 5.405 1.772 9.635 3.839 12.471 6.038 2.863 2.219 4.019 4.332 4.019 6.204zM64 339v142M500 226c0 1.872-1.156 3.985-4.019 6.204-2.836 2.199-7.066 4.266-12.471 6.038C472.722 241.779 457.692 244 441 244c-16.692 0-31.722-2.221-42.51-5.758-5.405-1.772-9.635-3.839-12.471-6.038-2.863-2.219-4.019-4.332-4.019-6.204 0-1.872 1.156-3.985 4.019-6.204 2.836-2.199 7.066-4.266 12.471-6.038C409.278 210.221 424.308 208 441 208c16.692 0 31.722 2.221 42.51 5.758 5.405 1.772 9.635 3.839 12.471 6.038 2.863 2.219 4.019 4.332 4.019 6.204z"
    stroke="#fff"
    stroke-width="4"
  />
  <path
    d="M440 283c33.689 0 61-8.954 61-20s-27.311-20-61-20M500 188c0 1.872-1.156 3.985-4.019 6.204-2.836 2.199-7.066 4.266-12.471 6.038C472.722 203.779 457.692 206 441 206c-16.692 0-31.722-2.221-42.51-5.758-5.405-1.772-9.635-3.839-12.471-6.038-2.863-2.219-4.019-4.332-4.019-6.204 0-1.872 1.156-3.985 4.019-6.204 2.836-2.199 7.066-4.266 12.471-6.038C409.278 172.221 424.308 170 441 170c16.692 0 31.722 2.221 42.51 5.758 5.405 1.772 9.635 3.839 12.471 6.038 2.863 2.219 4.019 4.332 4.019 6.204zM500 152c0 1.872-1.156 3.985-4.019 6.204-2.836 2.199-7.066 4.266-12.471 6.038C472.722 167.779 457.692 170 441 170c-16.692 0-31.722-2.221-42.51-5.758-5.405-1.772-9.635-3.839-12.471-6.038-2.863-2.219-4.019-4.332-4.019-6.204 0-1.872 1.156-3.985 4.019-6.204 2.836-2.199 7.066-4.266 12.471-6.038C409.278 136.221 424.308 134 441 134c16.692 0 31.722 2.221 42.51 5.758 5.405 1.772 9.635 3.839 12.471 6.038 2.863 2.219 4.019 4.332 4.019 6.204zM442 226v105"
    stroke="#fff"
    stroke-width="4"
  />
  <path
    d="M481.719 116.426l1.426 1.403-1.426-1.403zm12.79-65.387l-1.852.754 1.852-.754zM471 24l1.124-1.654L471 24zm-40.414-9.914a2 2 0 000 2.828l12.728 12.728a2 2 0 102.828-2.828L434.828 15.5l11.314-11.314a2 2 0 00-2.828-2.828l-12.728 12.728zM379 74c0 12.255 3.573 24.237 10.272 34.432l3.343-2.196C386.347 96.697 383 85.479 383 74h-4zm10.272 34.432c6.699 10.196 16.223 18.147 27.373 22.844l1.553-3.686c-10.412-4.386-19.316-11.815-25.583-21.354l-3.343 2.196zm27.373 22.844a60.087 60.087 0 0035.262 3.531l-.793-3.92a56.095 56.095 0 01-32.916-3.297l-1.553 3.686zm35.262 3.531c11.839-2.394 22.71-8.305 31.238-16.978l-2.852-2.805c-7.974 8.109-18.129 13.628-29.179 15.863l.793 3.92zm31.238-16.978c8.529-8.673 14.333-19.72 16.684-31.74l-3.926-.767c-2.201 11.257-7.636 21.593-15.61 29.702l2.852 2.805zm16.684-31.74a62.944 62.944 0 00-3.468-35.804l-3.704 1.508a58.948 58.948 0 013.246 33.529l3.926.767zm-3.468-35.804c-4.664-11.452-14.339-21.213-24.237-27.94l-2.248 3.31c9.507 6.46 18.514 15.663 22.781 26.138l3.704-1.508zm-24.237-27.94c-5.191-3.527-12.345-5.715-19.525-7.034C445.378 13.983 437.93 13.5 432 13.5v4c5.739 0 12.94.47 19.876 1.745 6.977 1.282 13.489 3.344 18 6.41l2.248-3.31z"
    fill="#fff"
  />
  <path
    fill-rule="evenodd"
    clip-rule="evenodd"
    d="M189 513.869a60.913 60.913 0 01-4 .131c-33.137 0-60-26.863-60-60s26.863-60 60-60c1.344 0 2.678.044 4 .131V394h127v.074c31.743 1.563 57 27.795 57 59.926s-25.257 58.363-57 59.926V514H189v-.131z"
    fill="#D7E4E3"
  />
  <path
    fill-rule="evenodd"
    clip-rule="evenodd"
    d="M375 202V75c0-33.137-26.863-60-60-60s-60 26.863-60 60h-1v127h.002l-.002.5c0 33.413 27.087 60.5 60.5 60.5s60.5-27.087 60.5-60.5l-.002-.5H375zM187 388c33.137 0 60-26.863 60-60s-26.863-60-60-60-60 26.863-60 60 26.863 60 60 60z"
    fill="#F5FF80"
  />
  <path
    d="M406.355 450.843l31.414-31.414c4.155 26.543 12.824 33.874 36.802 36.803l-31.413 31.413c-3.049-22.746-10.487-31.261-36.803-36.802zM185.5 268c12.204 1.542 68.5-8.5 68.5-69 0 0 111.527 60.13 63.412 64.213-48.116 4.083-69.414 30.649-68.93 68.93.484 38.281-75.186-65.685-62.982-64.143z"
    fill="#F5FF80"
  />
</svg>
