<svg
  width="483"
  height="347"
  viewBox="0 0 483 347"
  fill="none"
  xmlns="http://www.w3.org/2000/svg"
>
  <ellipse cx="305.621" cy="54" rx="56.6214" ry="54" fill="#D6E4E2" />
  <ellipse cx="187.621" cy="55" rx="56.6214" ry="54" fill="#F6FF81" />
  <ellipse cx="425.621" cy="292" rx="56.6214" ry="54" fill="white" />
  <ellipse cx="189.621" cy="293" rx="56.6214" ry="54" fill="#F6FF81" />
  <circle cx="187.645" cy="172.645" r="54.6446" fill="#D6E4E2" />
  <circle cx="306.355" cy="291.358" r="54.6446" fill="#D6E4E2" />
  <path
    d="M182.661 226.996L241.854 167.803C249.683 217.817 272 235 311 235L252.008 296.342C246.264 253.481 232.247 237.436 182.661 226.996Z"
    fill="#D6E4E2"
  />
  <circle
    cx="425.355"
    cy="172.644"
    r="54.6446"
    transform="rotate(90 425.355 172.644)"
    fill="#D6E4E2"
  />
  <path
    d="M371.006 167.661L430.199 226.854C380.185 234.683 366.372 251.019 360.853 296.201L302 236C345 232.5 360.566 217.247 371.006 167.661Z"
    fill="#D6E4E2"
  />
  <circle
    cx="425.356"
    cy="54.6446"
    r="54.6446"
    transform="rotate(90 425.356 54.6446)"
    fill="#F5FF80"
  />
  <circle
    cx="306.645"
    cy="173.355"
    r="54.6446"
    transform="rotate(90 306.645 173.355)"
    fill="#F5FF80"
  />
  <path
    d="M371.006 49.6616L430.199 108.855C380.185 116.683 366.372 133.019 360.853 178.201L301.66 119.008C344.521 113.264 360.566 99.2476 371.006 49.6616Z"
    fill="#F5FF80"
  />
  <path
    d="M120 148C120 149.872 118.844 151.985 115.981 154.204C113.145 156.403 108.915 158.47 103.51 160.242C92.7222 163.779 77.6923 166 61 166C44.3077 166 29.2778 163.779 18.4896 160.242C13.0846 158.47 8.85534 156.403 6.01899 154.204C3.15626 151.985 2 149.872 2 148C2 146.128 3.15626 144.015 6.01899 141.796C8.85534 139.597 13.0846 137.53 18.4896 135.758C29.2778 132.221 44.3077 130 61 130C77.6923 130 92.7222 132.221 103.51 135.758C108.915 137.53 113.145 139.597 115.981 141.796C118.844 144.015 120 146.128 120 148Z"
    stroke="white"
    stroke-width="4"
  />
  <path
    d="M120 112C120 113.872 118.844 115.985 115.981 118.204C113.145 120.403 108.915 122.47 103.51 124.242C92.7222 127.779 77.6923 130 61 130C44.3077 130 29.2778 127.779 18.4896 124.242C13.0846 122.47 8.85534 120.403 6.01899 118.204C3.15626 115.985 2 113.872 2 112C2 110.128 3.15626 108.015 6.01899 105.796C8.85534 103.597 13.0846 101.53 18.4896 99.7583C29.2778 96.2212 44.3077 94 61 94C77.6923 94 92.7222 96.2212 103.51 99.7583C108.915 101.53 113.145 103.597 115.981 105.796C118.844 108.015 120 110.128 120 112Z"
    stroke="white"
    stroke-width="4"
  />
  <path
    d="M61 96C94.6894 96 122 90.0457 122 79C122 67.9543 94.6894 59 61 59"
    stroke="white"
    stroke-width="4"
  />
  <path
    d="M120 148C120 149.872 118.844 151.985 115.981 154.204C113.145 156.403 108.915 158.47 103.51 160.242C92.7222 163.779 77.6923 166 61 166C44.3077 166 29.2778 163.779 18.4896 160.242C13.0846 158.47 8.85534 156.403 6.01899 154.204C3.15626 151.985 2 149.872 2 148C2 146.128 3.15626 144.015 6.01899 141.796C8.85534 139.597 13.0846 137.53 18.4896 135.758C29.2778 132.221 44.3077 130 61 130C77.6923 130 92.7222 132.221 103.51 135.758C108.915 137.53 113.145 139.597 115.981 141.796C118.844 144.015 120 146.128 120 148Z"
    stroke="white"
    stroke-width="4"
  />
  <path
    d="M64 322C29.7583 322 2 313.941 2 304C2 294.059 29.7583 286 64 286"
    stroke="white"
    stroke-width="4"
  />
  <path
    d="M120 268C120 269.872 118.844 271.985 115.981 274.204C113.145 276.403 108.915 278.47 103.51 280.242C92.7222 283.779 77.6923 286 61 286C44.3077 286 29.2778 283.779 18.4896 280.242C13.0846 278.47 8.85534 276.403 6.01899 274.204C3.15626 271.985 2 269.872 2 268C2 266.128 3.15626 264.015 6.01899 261.796C8.85534 259.597 13.0846 257.53 18.4896 255.758C29.2778 252.221 44.3077 250 61 250C77.6923 250 92.7222 252.221 103.51 255.758C108.915 257.53 113.145 259.597 115.981 261.796C118.844 264.015 120 266.128 120 268Z"
    stroke="white"
    stroke-width="4"
  />
  <path
    d="M120 232C120 233.872 118.844 235.985 115.981 238.204C113.145 240.403 108.915 242.47 103.51 244.242C92.7222 247.779 77.6923 250 61 250C44.3077 250 29.2778 247.779 18.4896 244.242C13.0846 242.47 8.85534 240.403 6.01899 238.204C3.15626 235.985 2 233.872 2 232C2 230.128 3.15626 228.015 6.01899 225.796C8.85534 223.597 13.0846 221.53 18.4896 219.758C29.2778 216.221 44.3077 214 61 214C77.6923 214 92.7222 216.221 103.51 219.758C108.915 221.53 113.145 223.597 115.981 225.796C118.844 228.015 120 230.128 120 232Z"
    stroke="white"
    stroke-width="4"
  />
  <line x1="63" y1="9" x2="63" y2="342" stroke="white" stroke-width="4" />
</svg>
