<svg width="54" height="54" fill="none" xmlns="http://www.w3.org/2000/svg">
  <path
    d="M24.845 21.308c1.965.053 3.617-.172 4.976-.7l-.012 2.642a5.308 5.308 0 00-.025 9.714c-.075 1.881-.356 2.624-.6 2.934-.11.138-.362.38-1.329.487a5.309 5.309 0 00-9.834-.006c-.819-.115-1.045-.336-1.147-.465-.246-.313-.53-1.064-.602-2.976a5.308 5.308 0 00-.029-9.665c.06-.66.172-1.057.284-1.296.106-.225.22-.352.58-.48l-.42-1.177.42 1.177c.486-.173 1.282-.282 2.65-.299 1-.012 2.17.023 3.588.066.474.014.974.03 1.5.044zm1.788-14.25c0 2.18 1.312 4.05 3.19 4.869.005.173.012.339.017.473l.001.012c.007.173.013.342.017.51l-.005 1.015c-.031.654-.128 1.161-.299 1.552-.17.391-.442.737-1.013 1.016-.63.308-1.722.579-3.58.529-.502-.014-.985-.028-1.452-.043h-.022c-1.408-.043-2.683-.081-3.783-.068-1.44.018-2.839.122-4.032.547-1.32.47-2.372 1.327-3.012 2.684-.43.91-.628 1.956-.703 3.082a5.309 5.309 0 00.038 9.768c.07 2.176.4 4.134 1.52 5.555 1.184 1.504 2.886 2 4.639 2.131a5.308 5.308 0 004.783 3.004 5.308 5.308 0 004.785-3.008c1.819-.11 3.597-.589 4.821-2.143 1.12-1.423 1.45-3.385 1.52-5.564a5.309 5.309 0 00.021-9.725l.045-9.211c.004-.116.008-.23.01-.342.004-.284.002-.56-.005-.823l.005-.986a5.309 5.309 0 10-7.506-4.833z"
    fill="#413F3F"
    stroke="#fff"
    stroke-width="2.5"
  />
  <path
    d="M17 22h13.141c-3.751 5.22-3.214 8.046 0 13-5.132-.989-8.009-1.123-13.141 0 1.624-5.203 1.771-8.061 0-13z"
    fill="#fff"
  />
</svg>
